<svg xmlns="http://www.w3.org/2000/svg" viewBox="0 0 1200 630" role="img" aria-labelledby="t d">
  <title id="t">Buildbybim.space — เครื่องมือทำงานสำหรับก่อสร้าง ออกแบบ และ AI Workflow</title>
  <desc id="d">Open Graph cover for Buildbybim.space platform — monochrome brand with B mark and tagline.</desc>

  <defs>
    <pattern id="grid" width="40" height="40" patternUnits="userSpaceOnUse">
      <path d="M40 0H0V40" fill="none" stroke="#DCDCD9" stroke-width="1"/>
    </pattern>
    <radialGradient id="vignette" cx="50%" cy="40%" r="75%">
      <stop offset="0%" stop-color="#FAFAF9" stop-opacity="0"/>
      <stop offset="100%" stop-color="#0A0A09" stop-opacity="0.06"/>
    </radialGradient>
  </defs>

  <!-- Background -->
  <rect width="1200" height="630" fill="#FAFAF9"/>
  <rect width="1200" height="630" fill="url(#grid)" opacity="0.55"/>
  <rect width="1200" height="630" fill="url(#vignette)"/>

  <!-- Top meta strip -->
  <g font-family="JetBrains Mono, ui-monospace, monospace" font-size="13" fill="#8A8A86" letter-spacing="1.5">
    <text x="80" y="68" font-weight="600" fill="#0A0A09">BUILDBYBIM.SPACE</text>
    <text x="290" y="68">/ v0.4 — BANGKOK, 2026</text>
    <text x="80" y="90">PUBLIC PLATFORM</text>
    <line x1="80" y1="106" x2="1120" y2="106" stroke="#DCDCD9" stroke-width="1"/>
  </g>

  <!-- B mark -->
  <g transform="translate(80 175)">
    <rect width="128" height="128" rx="24" fill="#0A0A09"/>
    <path fill="#FAFAF9" d="M44 28h24c10 0 18 6.4 18 17 0 5.8-2.6 10.2-7 13 6 2.8 10 8.2 10 15.4 0 11-8.4 18.6-20.8 18.6H44V28zm8.8 8.4v20.6h14.8c6.2 0 10.4-4 10.4-10.2 0-6-4.2-10.4-10.4-10.4H52.8zm0 28.8v19.2h16c6.8 0 11.2-3.8 11.2-9.6S75.6 65.2 68.8 65.2H52.8z"/>
    <rect x="64" y="18" width="1.4" height="92" fill="#FAFAF9" opacity="0.16"/>
    <rect x="18" y="64" width="92" height="1.4" fill="#FAFAF9" opacity="0.16"/>
  </g>

  <!-- Eyebrow -->
  <g transform="translate(240 200)" font-family="JetBrains Mono, ui-monospace, monospace" font-size="13" letter-spacing="2" fill="#4A4A47" font-weight="500">
    <rect width="28" height="1" y="6" fill="#4A4A47"/>
    <text x="42" y="11" text-transform="uppercase">A productivity platform — Construction · Design · AI Workflow</text>
  </g>

  <!-- Main headline -->
  <g font-family="IBM Plex Sans Thai, Onest, system-ui, sans-serif" fill="#0A0A09">
    <text x="240" y="280" font-size="64" font-weight="600" letter-spacing="-1.2">รวมเครื่องมือทำงาน</text>
    <text x="240" y="354" font-size="64" font-weight="600" letter-spacing="-1.2">สำหรับก่อสร้าง <tspan font-style="italic" text-decoration="underline">ออกแบบ</tspan></text>
    <text x="240" y="428" font-size="64" font-weight="600" letter-spacing="-1.2">และ AI Workflow</text>
  </g>

  <!-- Lede -->
  <text x="240" y="478" font-family="IBM Plex Sans Thai, Onest, system-ui, sans-serif" font-size="20" fill="#4A4A47" font-weight="400">
    Tools first · Workspace later · Agent ready
  </text>

  <!-- Bottom stat strip -->
  <g transform="translate(80 540)">
    <line x1="0" y1="0" x2="1040" y2="0" stroke="#DCDCD9" stroke-width="1"/>
    <g font-family="JetBrains Mono, ui-monospace, monospace" font-size="11" letter-spacing="1.2" fill="#8A8A86">
      <text x="0" y="28" text-transform="uppercase">Apps</text>
      <text x="0" y="58" font-family="Onest, system-ui, sans-serif" font-size="28" font-weight="700" fill="#0A0A09" letter-spacing="-0.5">12</text>

      <text x="220" y="28" text-transform="uppercase">Workflows</text>
      <text x="220" y="58" font-family="Onest, system-ui, sans-serif" font-size="28" font-weight="700" fill="#0A0A09" letter-spacing="-0.5">12</text>

      <text x="440" y="28" text-transform="uppercase">Prompt Sets</text>
      <text x="440" y="58" font-family="Onest, system-ui, sans-serif" font-size="28" font-weight="700" fill="#0A0A09" letter-spacing="-0.5">240<tspan font-family="JetBrains Mono, monospace" font-size="16" fill="#4A4A47">+</tspan></text>

      <text x="660" y="28" text-transform="uppercase">Storage</text>
      <text x="660" y="58" font-family="Onest, system-ui, sans-serif" font-size="18" font-weight="600" fill="#0A0A09" letter-spacing="-0.3">Local-first</text>

      <text x="880" y="28" text-transform="uppercase">URL</text>
      <text x="880" y="58" font-family="Onest, system-ui, sans-serif" font-size="18" font-weight="600" fill="#0A0A09" letter-spacing="-0.3">buildbybim.space</text>
    </g>
  </g>
</svg>
