<svg xmlns="http://www.w3.org/2000/svg" viewBox="0 0 640 640">
  <defs>
    <linearGradient id="bg" x1="80" y1="40" x2="560" y2="600" gradientUnits="userSpaceOnUse">
      <stop stop-color="#FFF7ED"/>
      <stop offset="1" stop-color="#E7EFEF"/>
    </linearGradient>
    <linearGradient id="line" x1="128" y1="142" x2="514" y2="438" gradientUnits="userSpaceOnUse">
      <stop stop-color="#0F766E"/>
      <stop offset="1" stop-color="#2563EB"/>
    </linearGradient>
  </defs>
  <rect width="640" height="640" rx="54" fill="url(#bg)"/>
  <path d="M104 500h432" stroke="#0F172A" stroke-opacity=".12" stroke-width="10" stroke-linecap="round"/>
  <path d="M150 418V248l170-92 170 92v170" fill="#FFFFFF" stroke="#0F172A" stroke-opacity=".2" stroke-width="10" stroke-linejoin="round"/>
  <path d="M180 402V270l140-76 140 76v132" fill="#ECFDF5" stroke="url(#line)" stroke-width="8" stroke-linejoin="round"/>
  <path d="M236 402V300h74v102M340 402V292h82v110" fill="#FFFFFF" stroke="#0F172A" stroke-opacity=".28" stroke-width="8"/>
  <path d="M154 250h332M182 304h278M182 354h278" stroke="#0F172A" stroke-opacity=".08" stroke-width="5"/>
  <circle cx="494" cy="164" r="38" fill="#22D3EE" fill-opacity=".9"/>
  <path d="M476 165l13 13 25-30" fill="none" stroke="#052E2B" stroke-width="9" stroke-linecap="round" stroke-linejoin="round"/>
  <text x="84" y="92" fill="#0F172A" fill-opacity=".72" font-family="Arial, sans-serif" font-size="30" font-weight="700">BOQ / SITE</text>
</svg>
