<svg xmlns="http://www.w3.org/2000/svg" viewBox="0 0 64 64" role="img" aria-labelledby="title desc">
  <title id="title">Buildbybim logo</title>
  <desc id="desc">Monochrome letter B mark for Build By BIM, designed to read cleanly at 24-48 px.</desc>
  <rect width="64" height="64" rx="12" fill="#0A0A09"/>
  <path fill="#FAFAF9" d="M22 14h12c5 0 9 3.2 9 8.5 0 2.9-1.3 5.1-3.5 6.5 3 1.4 5 4.1 5 7.7 0 5.5-4.2 9.3-10.4 9.3H22V14zm4.4 4.2v10.3h7.4c3.1 0 5.2-2 5.2-5.1 0-3-2.1-5.2-5.2-5.2h-7.4zm0 14.4v9.6h8c3.4 0 5.6-1.9 5.6-4.8s-2.2-4.8-5.6-4.8h-8z"/>
  <rect x="32" y="9" width="0.7" height="46" fill="#FAFAF9" opacity="0.18"/>
  <rect x="9" y="32" width="46" height="0.7" fill="#FAFAF9" opacity="0.18"/>
</svg>
